<?xml version="1.0" standalone="no"?>
<!DOCTYPE svg PUBLIC "-//W3C//DTD SVG 20010904//EN"
 "http://www.w3.org/TR/2001/REC-SVG-20010904/DTD/svg10.dtd">
<svg version="1.0" xmlns="http://www.w3.org/2000/svg"
 width="128.000000pt" height="128.000000pt" viewBox="0 0 128.000000 128.000000"
 preserveAspectRatio="xMidYMid meet">

<g transform="translate(0.000000,128.000000) scale(0.100000,-0.100000)"
fill="#000000" stroke="none">
<path d="M501 1265 c-110 -24 -226 -89 -311 -175 -250 -250 -252 -649 -5 -895
122 -121 256 -183 419 -192 292 -16 560 170 649 452 31 99 31 271 0 370 -101
318 -428 510 -752 440z m245 -76 c98 -17 210 -78 288 -155 219 -220 219 -569
-1 -789 -219 -219 -568 -218 -788 3 -270 269 -194 722 148 891 118 58 225 73
353 50z"/>
<path d="M580 834 c-189 -74 -350 -140 -358 -146 -29 -24 -7 -52 85 -111 l93
-59 40 16 c48 19 58 20 42 4 -8 -8 -12 -47 -12 -110 0 -87 2 -98 20 -108 25
-13 43 -4 94 49 l39 40 99 -50 c80 -40 102 -47 118 -39 11 6 20 12 20 13 0 2
25 138 55 302 50 277 53 301 38 317 -9 10 -19 18 -22 18 -3 0 -161 -61 -351
-136z m290 19 c1 -14 -73 -428 -77 -432 -2 -3 -43 15 -92 39 l-89 43 -31 -22
c-29 -21 -31 -21 -31 -4 0 10 38 57 85 103 87 86 99 111 63 133 -13 9 -47 -2
-151 -47 -132 -56 -136 -57 -165 -42 -17 9 -33 19 -35 24 -4 6 486 206 516
211 4 0 7 -2 7 -6z"/>
</g>
</svg>
